<?xml version="1.0" standalone="no"?>
<!DOCTYPE svg PUBLIC "-//W3C//DTD SVG 20010904//EN"
 "http://www.w3.org/TR/2001/REC-SVG-20010904/DTD/svg10.dtd">
<svg version="1.0" xmlns="http://www.w3.org/2000/svg"
 width="1000.000000pt" height="1000.000000pt" viewBox="0 0 1000.000000 1000.000000"
 preserveAspectRatio="xMidYMid meet">
<metadata>
Created by potrace 1.11, written by Peter Selinger 2001-2013
</metadata>
<g transform="translate(0.000000,1000.000000) scale(0.100000,-0.100000)"
fill="#000000" stroke="none">
<path d="M2749 9446 c-2 -2 -38 -6 -79 -10 -85 -7 -131 -14 -295 -42 -257 -45
-675 -205 -910 -349 -22 -13 -53 -32 -70 -41 -49 -28 -252 -170 -275 -194 -3
-3 -32 -27 -65 -55 -279 -230 -556 -575 -723 -900 -77 -152 -192 -430 -207
-505 -2 -8 -17 -67 -34 -130 -17 -63 -33 -133 -36 -155 -4 -22 -8 -47 -10 -55
-2 -8 -7 -37 -11 -65 -3 -27 -8 -59 -10 -70 -25 -129 -25 -649 0 -780 2 -11 7
-42 10 -69 4 -27 9 -52 10 -55 2 -3 7 -27 10 -52 17 -127 115 -448 182 -597
81 -179 148 -304 227 -427 345 -533 850 -947 1429 -1169 109 -42 104 -31 55
-131 -78 -162 -115 -401 -88 -580 19 -120 23 -140 53 -224 83 -238 247 -445
458 -577 120 -75 230 -119 384 -152 82 -18 174 -19 2203 -19 1971 0 2122 -1
2177 -17 302 -88 368 -479 110 -656 -58 -41 -111 -58 -192 -65 -93 -7 -119
-13 -180 -43 -103 -49 -183 -157 -201 -271 -8 -50 -7 -68 3 -135 20 -123 134
-247 258 -280 l53 -14 -130 -4 c-71 -2 68 -4 310 -4 352 0 390 2 190 6 -137 3
-234 7 -215 8 62 4 213 40 285 67 294 110 525 334 645 625 93 225 102 517 25
755 -124 380 -456 675 -839 746 -33 6 -68 14 -76 17 -8 3 -973 6 -2145 7
-2009 1 -2133 2 -2185 18 -216 70 -317 318 -212 524 27 51 99 124 150 150 33
18 49 23 112 40 8 2 975 5 2148 5 1173 1 2135 5 2138 10 3 4 18 8 33 8 47 0
200 48 291 91 288 136 507 392 594 691 33 113 37 144 41 288 9 305 -101 585
-314 799 -207 208 -462 320 -767 336 -99 5 -189 -22 -259 -79 -208 -171 -175
-501 62 -619 58 -29 81 -35 164 -42 87 -7 100 -10 155 -35 186 -82 270 -304
185 -487 -55 -116 -166 -198 -290 -212 -74 -9 -4250 -6 -4321 3 -293 36 -512
96 -745 205 -88 42 -301 163 -315 180 -3 3 -39 31 -80 62 -272 203 -498 479
-651 794 -58 119 -123 282 -134 335 -2 8 -10 40 -19 70 -47 168 -71 360 -70
575 0 206 9 282 59 515 50 235 191 542 348 762 89 124 137 180 252 294 141
139 240 215 460 351 34 21 222 112 278 134 133 53 344 112 452 125 22 3 46 7
53 9 56 19 392 26 537 12 147 -14 310 -49 473 -103 502 -164 954 -531 1220
-989 84 -146 176 -365 222 -530 12 -44 24 -81 25 -83 2 -2 22 8 44 22 80 51
245 125 326 147 17 4 55 15 85 23 30 9 75 18 100 22 25 3 71 9 104 13 78 11
268 6 358 -9 432 -70 783 -296 1023 -658 41 -63 55 -76 80 -79 31 -3 131 -19
174 -28 167 -33 450 -144 570 -224 14 -10 47 -32 74 -49 50 -34 52 -32 36 38
-6 25 -12 52 -14 60 -18 88 -75 257 -126 373 -265 602 -786 1056 -1424 1242
-89 26 -204 51 -280 60 -27 4 -61 9 -75 12 -46 9 -384 11 -450 2 -36 -5 -83
-12 -105 -15 -22 -3 -47 -7 -56 -10 -12 -3 -31 21 -72 89 -50 83 -163 248
-208 301 -319 385 -630 634 -1034 830 -172 83 -415 175 -513 192 -14 3 -30 8
-35 11 -6 3 -20 7 -31 9 -12 2 -74 14 -138 28 -64 13 -145 28 -180 31 -35 4
-74 10 -88 12 -31 6 -515 14 -521 9z"/>
<path d="M8807 4999 c-96 -22 -204 -104 -247 -189 -52 -102 -55 -234 -6 -334
62 -126 176 -200 326 -212 149 -12 243 -61 312 -165 95 -143 83 -321 -30 -450
-42 -47 -132 -101 -192 -115 -19 -4 -186 -8 -370 -9 -314 -2 -339 -3 -393 -23
-154 -55 -250 -201 -243 -368 6 -137 85 -252 216 -317 l65 -32 395 1 c272 1
411 5 445 13 28 7 61 14 75 17 92 18 244 87 360 163 73 48 200 170 260 250
102 137 185 330 208 490 15 98 7 358 -12 411 -3 8 -7 26 -10 40 -17 97 -105
279 -190 391 -206 272 -512 428 -871 444 -33 1 -77 -2 -98 -6z"/>
</g>
</svg>
